<?xml version="1.0" encoding="utf-8"?>
<!-- Uploaded to: SVG Repo, www.svgrepo.com, Generator: SVG Repo Mixer Tools -->
<svg width="800px" height="800px" viewBox="0 0 1024 1024" class="icon"  version="1.1" xmlns="http://www.w3.org/2000/svg"><path d="M512 384m-170.666667 0a170.666667 170.666667 0 1 0 341.333334 0 170.666667 170.666667 0 1 0-341.333334 0Z" fill="#009688" /><path d="M341.333333 384h341.333334v128H341.333333z" fill="#E89419" /><path d="M661.333333 106.666667v85.333333h-46.933333c-51.2 0-25.6-21.333333-102.4-21.333333V85.333333c76.8 0 51.2 21.333333 102.4 21.333334H661.333333z" fill="#2196F3" /><path d="M85.333333 512h853.333334v362.666667H85.333333z" fill="#FFB74D" /><path d="M661.333333 725.333333h85.333334v106.666667h-85.333334zM533.333333 725.333333h85.333334v106.666667h-85.333334zM405.333333 725.333333h85.333334v106.666667h-85.333334zM789.333333 725.333333h85.333334v106.666667h-85.333334zM277.333333 725.333333h85.333334v106.666667h-85.333334zM149.333333 725.333333h85.333334v106.666667H149.333333zM661.333333 576h85.333334v106.666667h-85.333334zM533.333333 576h85.333334v106.666667h-85.333334zM405.333333 576h85.333334v106.666667h-85.333334zM618.666667 512h-85.333334v-64c0-23.466667 19.2-42.666667 42.666667-42.666667s42.666667 19.2 42.666667 42.666667v64zM490.666667 512h-85.333334v-64c0-23.466667 19.2-42.666667 42.666667-42.666667s42.666667 19.2 42.666667 42.666667v64zM789.333333 576h85.333334v106.666667h-85.333334zM277.333333 576h85.333334v106.666667h-85.333334zM149.333333 576h85.333334v106.666667H149.333333z" fill="#B07424" /></svg>